<svg width="29" height="32" viewBox="0 0 29 32" fill="none" xmlns="http://www.w3.org/2000/svg">
<g clip-path="url(#clip0_217_120)">
<path d="M2.94653 31.9999H26.0535C26.9726 31.9999 27.6934 31.7931 28.216 31.3795C28.7387 30.9658 29 30.3978 29 29.6754C29 28.5569 28.664 27.3743 27.9921 26.1277C27.3201 24.881 26.3551 23.713 25.0972 22.6236C23.8393 21.5342 22.3172 20.6487 20.5309 19.9671C18.7446 19.2855 16.7315 18.9447 14.4914 18.9447C12.2629 18.9447 10.2554 19.2855 8.46912 19.9671C6.68282 20.6487 5.15787 21.5342 3.89425 22.6236C2.63062 23.713 1.66568 24.881 0.999408 26.1277C0.333136 27.3743 0 28.5569 0 29.6754C0 30.3978 0.26134 30.9658 0.784019 31.3795C1.3067 31.7931 2.02754 31.9999 2.94653 31.9999ZM14.5087 15.8164C15.7378 15.8164 16.875 15.4756 17.9203 14.794C18.9657 14.1124 19.8072 13.189 20.4448 12.0239C21.0823 10.8588 21.4011 9.54806 21.4011 8.09165C21.4011 6.65856 21.0823 5.37402 20.4448 4.23803C19.8072 3.10205 18.9657 2.20783 17.9203 1.55536C16.875 0.902893 15.7378 0.57666 14.5087 0.57666C13.2795 0.57666 12.1422 0.908718 11.0969 1.57283C10.0515 2.23695 9.21007 3.13992 8.57252 4.28173C7.93497 5.42355 7.61619 6.70518 7.61619 8.12662C7.61619 9.57136 7.93497 10.8734 8.57252 12.0327C9.21007 13.192 10.0515 14.1124 11.0969 14.794C12.1422 15.4756 13.2795 15.8164 14.5087 15.8164Z" fill="white" fill-opacity="0.85"/>
</g>
<defs>
<clipPath id="clip0_217_120">
<rect width="29" height="32" fill="white"/>
</clipPath>
</defs>
</svg>
